HIERARCHY
ROOT SpineBase
{
  OFFSET 0.000000 0.000000 0.000000
  CHANNELS 6 Xposition Yposition Zposition Zrotation Xrotation Yrotation
  JOINT SpineMid
  {
    OFFSET 0.000000 24.293491 0.000000
    CHANNELS 3 Zrotation Xrotation Yrotation
    JOINT SpineShoulder
    {
      OFFSET 0.152607 18.062157 -0.580242
      CHANNELS 3 Zrotation Xrotation Yrotation
      JOINT Neck
      {
        OFFSET 0.081646 5.968724 -0.428352
        CHANNELS 3 Zrotation Xrotation Yrotation
        JOINT Head
        {
          OFFSET 4.258327 11.218374 -1.243789
          CHANNELS 3 Zrotation Xrotation Yrotation
          End Site
          {
            OFFSET 0 0 0
          }
        }
      }
      JOINT ShoulderLeft
      {
        OFFSET -13.753719 -2.479614 -8.778077
        CHANNELS 3 Zrotation Xrotation Yrotation
        JOINT ElbowLeft
        {
          OFFSET -10.439632 -17.332920 -5.818423
          CHANNELS 3 Zrotation Xrotation Yrotation
          JOINT WristLeft
          {
            OFFSET 4.761340 -11.621979 -17.654742
            CHANNELS 3 Zrotation Xrotation Yrotation
            JOINT HandLeft
            {
              OFFSET 0.814814 -4.766248 -5.235351
              CHANNELS 3 Zrotation Xrotation Yrotation
              JOINT HandTipLeft
              {
                OFFSET 0.586155 -6.195437 -0.686155
                CHANNELS 3 Zrotation Xrotation Yrotation
                End Site
                {
                  OFFSET 0 0 0
                }
              }
              JOINT ThumbLeft
              {
                OFFSET 1.882370 1.796378 -3.076601
                CHANNELS 3 Zrotation Xrotation Yrotation
                End Site
                {
                  OFFSET 0 0 0
                }
              }
            }
          }
        }
      }
      JOINT ShoulderRight
      {
        OFFSET 12.833806 -4.233920 2.944065
        CHANNELS 3 Zrotation Xrotation Yrotation
        JOINT ElbowRight
        {
          OFFSET -2.459868 -20.388996 0.674061
          CHANNELS 3 Zrotation Xrotation Yrotation
          JOINT WristRight
          {
            OFFSET 4.555025 -17.006118 -16.509317
            CHANNELS 3 Zrotation Xrotation Yrotation
            JOINT HandRight
            {
              OFFSET 1.019547 -2.769780 -3.113333
              CHANNELS 3 Zrotation Xrotation Yrotation
              JOINT HandTipRight
              {
                OFFSET 1.617647 -3.841675 -5.749646
                CHANNELS 3 Zrotation Xrotation Yrotation
                End Site
                {
                  OFFSET 0 0 0
                }
              }
              JOINT ThumbRight
              {
                OFFSET -2.864597 -0.541605 -3.349045
                CHANNELS 3 Zrotation Xrotation Yrotation
                End Site
                {
                  OFFSET 0 0 0
                }
              }
            }
          }
        }
      }
    }
  }
  JOINT HipLeft
  {
    OFFSET -5.940665 0.370329 -5.704565
    CHANNELS 3 Zrotation Xrotation Yrotation
    JOINT KneeLeft
    {
      OFFSET 10.562227 -6.944896 -27.862591
      CHANNELS 3 Zrotation Xrotation Yrotation
      JOINT AnkleLeft
      {
        OFFSET -2.117963 -37.399272 -2.095106
        CHANNELS 3 Zrotation Xrotation Yrotation
        JOINT FootLeft
        {
          OFFSET 2.992854 -5.268281 -11.793170
          CHANNELS 3 Zrotation Xrotation Yrotation
          End Site
          {
            OFFSET 0 0 0
          }
        }
      }
    }
  }
  JOINT HipRight
  {
    OFFSET 5.849311 0.240881 -1.179471
    CHANNELS 3 Zrotation Xrotation Yrotation
    JOINT KneeRight
    {
      OFFSET 20.871864 0.127623 -21.491132
      CHANNELS 3 Zrotation Xrotation Yrotation
      JOINT AnkleRight
      {
        OFFSET 0.712727 -36.977586 -7.083882
        CHANNELS 3 Zrotation Xrotation Yrotation
        JOINT FootRight
        {
          OFFSET -8.643673 -6.772556 -4.894837
          CHANNELS 3 Zrotation Xrotation Yrotation
          End Site
          {
            OFFSET 0 0 0
          }
        }
      }
    }
  }
}
MOTION
Frames: 16
Frame Time: 0.033333
6.217602 53.189339 396.004344 5.617498 4.690392 -11.264822 0.482026 0.345010 11.199345 1.182590 -0.249002 0.375221 10.703373 -0.460367 0.468249 0.000000 0.000000 0.000000 -2.010764 -1.898371 -3.994246 -4.219547 -2.452699 2.217792 -1.675879 1.078206 2.243329 4.540827 9.271270 -0.635389 0.000000 0.000000 0.000000 0.000000 0.000000 0.000000 92.399073 53.845834 -71.901392 -26.504675 -57.768984 -12.207551 -7.404223 -6.377222 4.061300 6.640817 -14.381334 -11.862852 0.000000 0.000000 0.000000 0.000000 0.000000 0.000000 -5.637424 -9.786410 12.098450 1.857070 3.802536 -1.491954 -5.240643 -0.257042 11.909400 0.000000 0.000000 0.000000 -11.003454 -14.765044 8.139240 8.825880 7.366199 0.599790 -4.812815 -3.376969 7.791782 0.000000 0.000000 0.000000
6.606565 53.265565 396.174978 6.576430 4.419385 -11.671280 -0.144192 0.412644 11.559019 1.031188 -0.221499 0.370019 10.720221 -0.363270 0.440500 0.000000 0.000000 0.000000 -2.413163 -2.102173 -3.791447 -3.920064 -2.054344 1.846128 -1.535191 1.185281 2.129210 5.067309 6.104778 -0.658347 0.000000 0.000000 0.000000 0.000000 0.000000 0.000000 90.435073 53.121712 -69.184919 -28.049465 -54.828338 -13.413519 -6.988660 -6.839125 3.769274 5.976287 -13.787130 -11.055116 0.000000 0.000000 0.000000 0.000000 0.000000 0.000000 -6.761952 -9.569704 13.503310 2.603516 4.310402 -2.690410 -6.056581 -3.329704 11.752611 0.000000 0.000000 0.000000 -12.190691 -15.321525 9.330314 9.056962 7.923245 -0.305549 -4.944685 -4.723041 9.427656 0.000000 0.000000 0.000000
6.706242 53.229267 396.512497 6.857722 3.782315 -12.121416 -0.405494 0.716605 12.015853 0.961785 -0.161558 0.360076 10.862625 -0.207644 0.440870 0.000000 0.000000 0.000000 -2.513736 -2.151644 -3.600578 -3.855642 -1.586612 1.704059 -0.886150 1.216559 1.391034 5.896926 4.272481 -0.258151 0.000000 0.000000 0.000000 0.000000 0.000000 0.000000 89.884506 51.806348 -66.965274 -31.970533 -51.590295 -15.934442 -5.381086 -7.077121 2.817728 5.616419 -14.248660 -10.668375 0.000000 0.000000 0.000000 0.000000 0.000000 0.000000 -7.147597 -8.515551 14.674781 3.044142 4.208870 -3.430645 -6.451349 -3.667964 11.704306 0.000000 0.000000 0.000000 -15.087155 -19.106645 11.218310 13.048069 11.399147 -3.204563 -8.292427 -6.563225 13.099421 0.000000 0.000000 0.000000
6.760789 53.097040 397.070811 6.908311 2.746504 -12.454099 -0.441957 1.238103 12.392897 1.009359 0.060935 0.350934 10.730829 0.134380 0.315377 0.000000 0.000000 0.000000 -2.594734 -2.164107 -3.460925 -3.986429 -0.905353 1.696105 -0.242645 0.314210 0.480534 4.762878 5.480983 0.536383 0.000000 0.000000 0.000000 0.000000 0.000000 0.000000 89.106905 51.034088 -65.501022 -33.535141 -48.654288 -16.823272 -4.944003 -9.319539 2.456322 5.356291 -16.475947 -10.913730 0.000000 0.000000 0.000000 0.000000 0.000000 0.000000 -7.335409 -6.615356 15.627117 3.190997 3.925834 -3.959936 -6.682381 -4.112120 11.517139 0.000000 0.000000 0.000000 -15.395636 -18.968325 13.156843 13.657543 11.991660 -4.718573 -5.320437 -13.472053 20.559889 0.000000 0.000000 0.000000
6.601169 52.927760 397.545447 6.507917 1.965174 -13.022703 -0.175437 1.573326 13.012348 1.046546 0.313332 0.330267 10.622725 0.184704 0.345378 0.000000 0.000000 0.000000 -2.473766 -2.097525 -3.375690 -4.111063 -0.407286 1.731151 0.322570 -0.187836 -0.267440 4.547813 5.559505 1.090077 0.000000 0.000000 0.000000 0.000000 0.000000 0.000000 88.859049 50.840826 -65.113856 -33.945023 -46.766329 -16.900605 -3.821665 -12.612661 1.672821 5.550598 -15.735793 -11.333566 0.000000 0.000000 0.000000 0.000000 0.000000 0.000000 -6.927252 -5.012666 16.228418 3.033773 3.906152 -3.887587 -6.676811 -4.707299 11.190383 0.000000 0.000000 0.000000 -15.833083 -20.173937 15.106554 15.633313 13.262442 -6.646442 -2.065784 -13.200508 18.673019 0.000000 0.000000 0.000000
6.389199 52.783164 398.089325 6.040321 1.111378 -13.488070 0.139055 1.906889 13.524716 1.330803 0.569088 0.330917 9.880739 0.528908 0.147369 0.000000 0.000000 0.000000 -2.493463 -1.930865 -3.351927 -4.428339 -0.020926 1.929669 1.041902 -1.080239 -1.260763 3.549688 5.939357 1.841195 0.000000 0.000000 0.000000 0.000000 0.000000 0.000000 89.476882 51.014049 -66.348805 -33.628485 -46.763607 -16.623990 -4.298915 -13.502232 1.860207 6.184334 -18.168742 -12.423955 0.000000 0.000000 0.000000 0.000000 0.000000 0.000000 -6.335037 -3.680834 15.759611 1.814977 3.923859 -2.740115 -5.739897 -4.818082 10.800222 0.000000 0.000000 0.000000 -15.480460 -20.084388 17.004066 16.428412 13.578257 -8.058242 2.174956 -12.629726 15.771087 0.000000 0.000000 0.000000
5.957819 52.615489 398.427211 5.183363 0.676555 -13.633611 0.656315 1.938603 13.701636 1.391156 0.751583 0.306039 9.423546 0.969225 -0.073739 0.000000 0.000000 0.000000 -2.105197 -1.580627 -3.376341 -4.651210 -0.011279 2.156059 1.708472 -1.466616 -2.087162 3.059269 5.048686 2.405276 0.000000 0.000000 0.000000 0.000000 0.000000 0.000000 90.194552 51.278209 -67.260142 -33.004884 -47.111610 -16.227248 -4.544666 -14.117392 1.949585 6.979358 -15.641336 -12.883494 0.000000 0.000000 0.000000 0.000000 0.000000 0.000000 -5.410054 -2.897593 15.272708 1.119741 3.048107 -1.929262 -5.188498 -3.905202 10.505656 0.000000 0.000000 0.000000 -14.243334 -18.674644 16.910313 15.618708 13.203109 -7.290613 0.404582 -6.537124 7.393385 0.000000 0.000000 0.000000
5.400455 52.467264 398.634984 4.129247 0.496383 -13.446120 1.253072 1.821111 13.530969 1.248159 0.760821 0.273527 9.135594 1.277120 -0.176212 0.000000 0.000000 0.000000 -1.412764 -1.080633 -3.401071 -4.814469 -0.178702 2.384573 2.077071 -1.748699 -2.568374 1.214590 5.394168 2.958350 0.000000 0.000000 0.000000 0.000000 0.000000 0.000000 90.897842 51.621773 -67.893093 -32.389634 -46.911439 -15.742214 -4.162899 -14.971805 1.697610 7.102899 -13.341306 -12.765026 0.000000 0.000000 0.000000 0.000000 0.000000 0.000000 -4.082501 -2.874061 13.349511 -0.023164 3.506668 -0.052977 -4.240925 -3.776129 10.152735 0.000000 0.000000 0.000000 -11.821932 -15.071869 14.868245 12.283997 11.425752 -4.072332 2.744147 -2.190298 -0.280001 0.000000 0.000000 0.000000
4.952666 52.345939 398.773539 3.303878 0.404793 -13.483999 1.571166 1.600923 13.576645 0.921892 0.693879 0.231081 8.960509 1.642128 -0.285252 0.000000 0.000000 0.000000 -0.576116 -0.635881 -3.322961 -4.861987 -0.289251 2.486771 2.384187 -1.512813 -2.883726 1.614277 4.510298 3.025078 0.000000 0.000000 0.000000 0.000000 0.000000 0.000000 91.215756 52.058961 -68.012562 -31.368547 -45.933274 -14.977245 -3.347284 -17.620484 1.131622 8.058691 -8.072830 -13.383279 0.000000 0.000000 0.000000 0.000000 0.000000 0.000000 -3.032488 -2.805494 12.096409 -0.670655 3.915828 1.306641 -3.747450 -3.890204 9.807643 0.000000 0.000000 0.000000 -10.119862 -13.122688 14.369754 10.671216 10.198243 -2.920398 2.436774 1.088030 -4.345844 0.000000 0.000000 0.000000
4.588248 52.240827 398.842872 2.623835 0.406432 -13.361764 1.725553 1.311588 13.456883 0.526170 0.578490 0.186149 8.872755 1.997939 -0.378505 0.000000 0.000000 0.000000 0.273998 -0.274695 -3.168564 -4.857874 -0.348313 2.562961 2.666867 -1.353819 -3.196514 -0.571506 3.033416 3.390368 0.000000 0.000000 0.000000 0.000000 0.000000 0.000000 92.012413 52.398528 -68.349733 -30.864967 -45.481828 -14.544340 -1.280066 -18.231593 0.141343 6.224083 -4.100625 -11.353353 0.000000 0.000000 0.000000 0.000000 0.000000 0.000000 -2.244195 -2.552414 11.456619 -0.548978 4.356145 1.784920 -3.588705 -1.448508 9.958570 0.000000 0.000000 0.000000 -7.736250 -9.817728 13.306882 7.216659 7.312835 -0.937000 7.103342 0.015111 -5.599662 0.000000 0.000000 0.000000
4.509172 52.174775 398.890315 2.400537 0.414343 -13.278658 1.567719 0.985983 13.375209 0.089687 0.391601 0.146989 8.717395 2.351332 -0.458201 0.000000 0.000000 0.000000 0.999276 0.129540 -3.031572 -4.818789 -0.474003 2.597900 2.815405 -1.064860 -3.328510 -1.143241 0.126322 3.273687 0.000000 0.000000 0.000000 0.000000 0.000000 0.000000 92.708731 52.447416 -68.341387 -31.620970 -44.437116 -14.722422 2.806084 -17.686825 -1.725704 1.709692 -2.712102 -7.098585 0.000000 0.000000 0.000000 0.000000 0.000000 0.000000 -2.115481 -2.049520 12.056820 0.556956 4.769940 0.937043 -5.017395 -5.995313 9.190939 0.000000 0.000000 0.000000 -6.774695 -8.434303 12.754082 6.104929 6.262091 -0.209012 4.794094 0.795653 -4.742739 0.000000 0.000000 0.000000
4.697332 52.126971 398.774379 2.582683 0.690289 -13.134387 1.222885 0.482798 13.234562 -0.370516 0.125585 0.114530 8.501970 2.593265 -0.494514 0.000000 0.000000 0.000000 1.512465 0.385951 -2.831111 -4.720458 -0.503545 2.544300 3.121718 0.064827 -3.477564 -1.268654 -1.115136 3.272964 0.000000 0.000000 0.000000 0.000000 0.000000 0.000000 93.410399 52.506921 -68.505189 -31.409080 -44.244499 -14.600838 3.037808 -15.751734 -1.780455 1.143461 -0.385254 -6.310470 0.000000 0.000000 0.000000 0.000000 0.000000 0.000000 -2.358807 -1.258312 13.092920 1.440351 4.324591 -0.379568 -6.287919 -9.988089 8.447672 0.000000 0.000000 0.000000 -6.614412 -8.203990 12.381584 5.671313 5.844208 0.069799 -0.287299 1.811248 -2.069176 0.000000 0.000000 0.000000
4.652531 52.026516 398.593007 2.262923 0.976668 -13.113867 1.236331 0.197244 13.210229 -0.518383 -0.161792 0.099970 8.310085 2.690654 -0.483435 0.000000 0.000000 0.000000 1.836497 0.579515 -2.683353 -4.640391 -0.601157 2.523502 3.287566 0.808224 -3.540370 -1.095396 -1.955053 3.179724 0.000000 0.000000 0.000000 0.000000 0.000000 0.000000 94.642419 51.983899 -68.620839 -32.864294 -43.787269 -15.454652 2.955652 -15.624014 -1.759531 1.879034 0.074895 -6.923038 0.000000 0.000000 0.000000 0.000000 0.000000 0.000000 -1.982968 -1.463864 13.069241 2.040627 4.674812 -0.461925 -7.208221 -12.956380 7.841937 0.000000 0.000000 0.000000 -5.456370 -6.985645 11.142625 4.487561 4.731517 1.484866 -2.811085 0.723514 1.087393 0.000000 0.000000 0.000000
4.701032 51.919568 398.367736 2.099545 1.308849 -13.177657 1.196093 -0.038700 13.269176 -0.547266 -0.379136 0.094099 8.188308 2.544083 -0.393531 0.000000 0.000000 0.000000 1.870492 0.583721 -2.512375 -4.448015 -0.588639 2.419222 3.056219 1.596248 -3.161156 -0.854281 -1.338740 2.842328 0.000000 0.000000 0.000000 0.000000 0.000000 0.000000 94.747940 51.795218 -68.223819 -32.005054 -42.892125 -15.194525 0.387531 -20.703878 -0.706280 2.877030 4.013764 -7.560505 0.000000 0.000000 0.000000 0.000000 0.000000 0.000000 -1.746736 -1.752220 13.126959 1.997179 4.432036 -0.439779 -7.351741 -14.454206 7.320998 0.000000 0.000000 0.000000 -4.334052 -5.781533 10.164792 3.371869 4.357909 2.672464 -6.156530 -2.640315 6.111856 0.000000 0.000000 0.000000
4.836301 51.859272 397.998006 2.111753 1.858980 -13.612660 1.140615 -0.336886 13.699730 -0.449628 -0.609073 0.103511 7.831107 2.259931 -0.299525 0.000000 0.000000 0.000000 1.664990 0.416438 -2.344123 -4.312895 -1.237103 2.106632 2.839031 2.427058 -2.689776 0.261318 0.110056 2.528332 0.000000 0.000000 0.000000 0.000000 0.000000 0.000000 95.021428 51.877921 -68.566893 -30.210298 -43.180475 -14.533355 -5.568978 -25.012690 1.605623 8.569078 8.289218 -12.205757 0.000000 0.000000 0.000000 0.000000 0.000000 0.000000 -1.616337 -2.302738 13.545908 2.219102 4.705112 -0.481531 -7.079642 -12.080787 7.572688 0.000000 0.000000 0.000000 -6.000801 -9.391354 11.600872 5.744940 6.030344 1.194446 -6.465754 2.527442 1.465502 0.000000 0.000000 0.000000
4.893042 51.829490 397.556936 2.054160 2.564151 -13.806751 1.196611 -0.666008 13.891384 -0.087056 -0.760702 0.135526 7.202077 1.942836 -0.271056 0.000000 0.000000 0.000000 1.193302 0.172753 -2.267281 -4.123591 -1.196445 2.025370 2.458549 2.005500 -2.347023 1.642065 1.122552 2.126513 0.000000 0.000000 0.000000 0.000000 0.000000 0.000000 95.232296 51.921487 -69.029938 -28.504921 -44.279240 -13.956907 -11.006272 -25.354074 3.949012 13.600033 3.986176 -17.167242 0.000000 0.000000 0.000000 0.000000 0.000000 0.000000 -1.385055 -2.979090 13.724756 1.759563 4.415778 -0.416078 -7.275147 -15.688090 6.963313 0.000000 0.000000 0.000000 -6.494122 -11.252016 11.596360 6.245452 6.260131 1.210386 -7.781010 5.908667 -0.175370 0.000000 0.000000 0.000000
